<svg width="28" height="29" viewBox="0 0 28 29" fill="none" xmlns="http://www.w3.org/2000/svg">
<path d="M8.69504 25.1094H3.78027C3.56271 25.1094 3.35406 25.0229 3.20022 24.8691C3.04639 24.7153 2.95996 24.5066 2.95996 24.2891V17.6172C2.95996 17.3996 3.04639 17.191 3.20022 17.0371C3.35406 16.8833 3.56271 16.7969 3.78027 16.7969H8.69504C8.9126 16.7969 9.12125 16.8833 9.27509 17.0371C9.42893 17.191 9.51535 17.3996 9.51535 17.6172V24.2891C9.51535 24.5066 9.42893 24.7153 9.27509 24.8691C9.12125 25.0229 8.9126 25.1094 8.69504 25.1094ZM4.60059 23.4688H7.87473V18.4375H4.60059V23.4688Z" fill="#5864FF"/>
<path d="M16.4099 25.1094H11.4951C11.2776 25.1094 11.0689 25.023 10.9151 24.8691C10.7612 24.7153 10.6748 24.5066 10.6748 24.2891V14.7248C10.6748 14.5072 10.7612 14.2986 10.9151 14.1447C11.0689 13.9909 11.2776 13.9045 11.4951 13.9045H16.4099C16.6274 13.9045 16.8361 13.9909 16.9899 14.1447C17.1438 14.2986 17.2302 14.5072 17.2302 14.7248V24.2891C17.2302 24.5066 17.1438 24.7153 16.9899 24.8691C16.8361 25.023 16.6274 25.1094 16.4099 25.1094ZM12.3154 23.4688H15.5896V15.5451H12.3154V23.4688Z" fill="#5864FF"/>
<path d="M24.1242 25.1094H19.21C18.9924 25.1094 18.7838 25.0229 18.6299 24.8691C18.4761 24.7153 18.3896 24.5066 18.3896 24.2891V11.4233C18.3896 11.2057 18.4761 10.9971 18.6299 10.8432C18.7838 10.6894 18.9924 10.603 19.21 10.603H24.1242C24.3417 10.603 24.5504 10.6894 24.7042 10.8432C24.8581 10.9971 24.9445 11.2057 24.9445 11.4233V24.2891C24.9445 24.5066 24.8581 24.7153 24.7042 24.8691C24.5504 25.0229 24.3417 25.1094 24.1242 25.1094ZM20.0303 23.4687H23.3039V12.2436H20.0303V23.4687Z" fill="#5864FF"/>
<path d="M19.308 8.91751C19.1677 8.91742 19.0297 8.88131 18.9073 8.81264C18.7848 8.74398 18.6821 8.64505 18.6088 8.52532C18.5356 8.40559 18.4943 8.26906 18.4889 8.1288C18.4835 7.98855 18.5141 7.84925 18.5779 7.72423L19.5 5.91408L17.6904 4.99259C17.5942 4.9438 17.5086 4.87652 17.4384 4.7946C17.3683 4.71269 17.315 4.61774 17.2816 4.5152C17.2482 4.41267 17.2353 4.30455 17.2437 4.19703C17.2521 4.08952 17.2817 3.98471 17.3306 3.88863C17.3796 3.79254 17.447 3.70704 17.529 3.63704C17.6111 3.56704 17.7061 3.5139 17.8087 3.48066C17.9113 3.44743 18.0195 3.43475 18.127 3.44335C18.2345 3.45195 18.3392 3.48167 18.4352 3.53079L20.976 4.82525C21.1697 4.92407 21.3163 5.09577 21.3834 5.30262C21.4506 5.50946 21.4329 5.73451 21.3342 5.92829L20.0397 8.46908C19.9711 8.60409 19.8664 8.71746 19.7372 8.79661C19.6081 8.87577 19.4595 8.91761 19.308 8.91751Z" fill="#5864FF"/>
<path d="M5.40569 11.3145C5.21027 11.3146 5.02124 11.2449 4.87262 11.118C4.724 10.9911 4.62557 10.8153 4.59504 10.6223C4.5645 10.4293 4.60388 10.2317 4.70608 10.0652C4.80828 9.8986 4.96658 9.77399 5.15249 9.71377L20.0898 4.86026C20.296 4.79574 20.5193 4.81514 20.7112 4.91426C20.9031 5.01337 21.0482 5.18419 21.115 5.38964C21.1817 5.59508 21.1648 5.81856 21.0677 6.01157C20.9707 6.20457 20.8015 6.35151 20.5968 6.42049L5.65944 11.2735C5.57754 11.3004 5.4919 11.3142 5.40569 11.3145Z" fill="#5864FF"/>
</svg>
