<svg width="594" height="594" viewBox="0 0 594 594" fill="none" xmlns="http://www.w3.org/2000/svg">
<g opacity="0.7">
<path d="M283.033 85.1939C315.494 28.9705 387.386 9.70693 443.61 42.1675C499.833 74.6281 519.097 146.521 486.636 202.744L310.31 508.149C277.85 564.372 205.957 583.636 149.734 551.175C93.51 518.715 74.2465 446.822 106.707 390.598L283.033 85.1939Z" fill="#141414"/>
<path fill-rule="evenodd" clip-rule="evenodd" d="M505.724 213.764L329.398 519.169C290.851 585.934 205.479 608.81 138.713 570.263C71.9478 531.716 49.0723 446.343 87.6193 379.578L263.945 74.1735C302.492 7.40819 387.865 -15.4673 454.63 23.0796C521.396 61.6265 544.271 146.999 505.724 213.764ZM443.61 42.1674C387.386 9.70682 315.494 28.9704 283.033 85.1938L106.707 390.598C74.2465 446.822 93.51 518.714 149.733 551.175C205.957 583.636 277.85 564.372 310.31 508.149L486.636 202.744C519.097 146.521 499.833 74.628 443.61 42.1674Z" fill="#38169C"/>
<path fill-rule="evenodd" clip-rule="evenodd" d="M152.643 552.801C208.414 582.963 278.407 563.407 310.31 508.149L486.636 202.744C519.097 146.521 499.833 74.6281 443.61 42.1675C430.697 34.7126 416.959 29.9859 403.061 27.8084C404.035 28.3353 405.005 28.8774 405.971 29.4347C462.194 61.8953 481.458 133.788 448.997 190.011L272.671 495.416C247.665 538.727 199.26 560.105 152.643 552.801Z" fill="#5964FF"/>
<path d="M106.709 390.599C74.2482 446.822 93.5117 518.715 149.735 551.176C205.959 583.636 277.851 564.373 310.312 508.149L398.475 355.447L194.872 237.897L106.709 390.599Z" fill="#5864FF"/>
<path fill-rule="evenodd" clip-rule="evenodd" d="M310.311 508.148C278.407 563.407 208.415 582.963 152.644 552.801C199.26 560.105 247.666 538.727 272.672 495.416L364.731 335.965L398.474 355.446L310.311 508.148Z" fill="#404CE2"/>
<path d="M320.758 425.085C323.121 433.903 317.887 442.968 309.069 445.331C300.25 447.693 291.186 442.46 288.823 433.642C286.46 424.823 291.693 415.759 300.512 413.396C309.33 411.033 318.395 416.266 320.758 425.085Z" fill="#141414"/>
<path d="M285.669 492.091C288.672 503.298 282.021 514.817 270.814 517.82C259.608 520.823 248.088 514.172 245.086 502.966C242.083 491.759 248.733 480.24 259.94 477.237C271.147 474.234 282.666 480.884 285.669 492.091Z" fill="#141414"/>
<path d="M272.236 441.96C274.064 448.782 270.015 455.795 263.193 457.623C256.37 459.451 249.358 455.402 247.53 448.58C245.702 441.757 249.75 434.745 256.573 432.917C263.395 431.089 270.408 435.137 272.236 441.96Z" fill="#141414"/>
<path d="M233.89 527.714C235.718 534.536 231.669 541.549 224.847 543.377C218.024 545.205 211.012 541.156 209.184 534.334C207.355 527.511 211.404 520.499 218.227 518.671C225.049 516.843 232.062 520.891 233.89 527.714Z" fill="#141414"/>
<path d="M227.09 483.71C228.919 490.532 224.87 497.545 218.047 499.373C211.225 501.201 204.212 497.152 202.384 490.33C200.556 483.507 204.605 476.495 211.427 474.667C218.25 472.838 225.262 476.887 227.09 483.71Z" fill="#141414"/>
<path d="M187.352 513.704C189.18 520.526 185.131 527.539 178.309 529.367C171.486 531.195 164.474 527.146 162.645 520.324C160.817 513.501 164.866 506.489 171.689 504.66C178.511 502.832 185.524 506.881 187.352 513.704Z" fill="#141414"/>
<path d="M354.151 385.783C355.979 392.606 351.931 399.618 345.108 401.447C338.286 403.275 331.273 399.226 329.445 392.403C327.617 385.581 331.666 378.568 338.488 376.74C345.311 374.912 352.323 378.961 354.151 385.783Z" fill="#141414"/>
<path fill-rule="evenodd" clip-rule="evenodd" d="M355.47 71.2261C365.861 77.5677 369.143 91.1316 362.801 101.522L279.553 237.919C273.211 248.31 259.648 251.592 249.257 245.25C238.867 238.908 235.585 225.345 241.926 214.954L325.174 78.5571C331.516 68.1667 345.08 64.8845 355.47 71.2261Z" fill="#5A64FF"/>
<path fill-rule="evenodd" clip-rule="evenodd" d="M355.366 71.163C365.792 77.4471 369.149 90.9927 362.865 101.418L336.208 145.64C329.924 156.065 316.378 159.422 305.953 153.138C295.528 146.854 292.171 133.308 298.455 122.883L325.111 78.661C331.396 68.2358 344.941 64.8788 355.366 71.163Z" fill="white"/>
</g>
</svg>
