<svg width="24" height="24" viewBox="0 0 24 24" fill="none" xmlns="http://www.w3.org/2000/svg">
<path d="M22.1923 9.84619C21.9781 9.84619 21.7727 9.93129 21.6212 10.0828C21.4697 10.2342 21.3846 10.4397 21.3846 10.6539V17.1154C21.3846 17.3296 21.2995 17.5351 21.148 17.6865C20.9966 17.838 20.7911 17.9231 20.5769 17.9231H4.42308C4.20886 17.9231 4.00342 17.838 3.85195 17.6865C3.70048 17.5351 3.61538 17.3296 3.61538 17.1154V10.6539C3.61538 10.4397 3.53029 10.2342 3.37882 10.0828C3.22735 9.93129 3.02191 9.84619 2.80769 9.84619C2.59348 9.84619 2.38804 9.93129 2.23657 10.0828C2.0851 10.2342 2 10.4397 2 10.6539V17.1154C2.00057 17.7578 2.25622 18.3738 2.71077 18.8277C3.16475 19.2823 3.78065 19.5379 4.42308 19.5385H20.5769C21.2193 19.5379 21.8353 19.2823 22.2892 18.8277C22.7438 18.3738 22.9994 17.7578 23 17.1154V10.6539C23 10.4397 22.9149 10.2342 22.7634 10.0828C22.612 9.93129 22.4065 9.84619 22.1923 9.84619Z" fill="#511BEB"/>
<path d="M12.0165 14.5308C12.1563 14.6356 12.3263 14.6923 12.5011 14.6923C12.6759 14.6923 12.8459 14.6356 12.9857 14.5308L22.5246 7.37462C22.6734 7.2624 22.7788 7.10218 22.823 6.92111C22.8671 6.74005 22.8473 6.54928 22.7669 6.38115C22.6466 6.13264 22.4855 5.90605 22.2903 5.71077C21.8364 5.25622 21.2205 5.00057 20.578 5H4.42418C3.78176 5.00057 3.16586 5.25622 2.71188 5.71077C2.5167 5.90605 2.35563 6.13264 2.23534 6.38115C2.15491 6.54928 2.13509 6.74005 2.17925 6.92111C2.22342 7.10218 2.32884 7.2624 2.47765 7.37462L12.0165 14.5308ZM4.42418 6.61538H20.578C20.653 6.60359 20.7293 6.60359 20.8042 6.61538L12.5011 12.875L4.19803 6.61538C4.27295 6.60359 4.34926 6.60359 4.42418 6.61538Z" fill="#511BEB"/>
</svg>
