<svg width="308" height="759" viewBox="0 0 308 759" fill="none" xmlns="http://www.w3.org/2000/svg">
<g opacity="0.5">
<mask id="path-1-inside-1_37_1308" fill="white">
<path fill-rule="evenodd" clip-rule="evenodd" d="M-309.549 545.964C-358.834 521.041 -378.584 460.883 -353.661 411.598L-235.991 178.902C-217.186 141.717 -178.324 121.345 -139.208 124.288L-125.201 96.5887C-112.739 71.946 -82.6604 62.0712 -58.0178 74.5326L58.3301 133.368C82.9728 145.829 92.8477 175.908 80.3863 200.551L69.8033 221.479L131.071 252.46C174.872 274.61 195.345 324.59 181.864 370.034L231.907 395.34C256.55 407.801 266.425 437.88 253.963 462.523L215.92 537.753C203.459 562.396 173.38 572.271 148.738 559.809L100.137 535.232L57.5127 619.522C32.59 668.807 -27.5676 688.557 -76.8528 663.634L-309.549 545.964ZM180.633 373.894C179.141 378.265 177.327 382.586 175.183 386.826L101.942 531.663L150.543 556.24C173.214 567.704 200.886 558.619 212.351 535.948L250.394 460.717C261.858 438.046 252.773 410.374 230.102 398.909L180.633 373.894ZM-134.935 124.702C-123.633 126.046 -112.371 129.356 -101.625 134.79L66.2338 219.673L76.8167 198.746C88.2812 176.074 79.1963 148.402 56.5251 136.937L-59.8228 78.1021C-82.4941 66.6377 -110.167 75.7225 -121.631 98.3937L-134.935 124.702Z"/>
</mask>
<path d="M-353.661 411.598L-357.23 409.793L-353.661 411.598ZM-309.549 545.964L-311.354 549.533L-309.549 545.964ZM-235.991 178.902L-239.56 177.097L-235.991 178.902ZM-139.208 124.288L-135.638 126.093L-136.844 128.477L-139.508 128.276L-139.208 124.288ZM-125.201 96.5887L-128.77 94.7836L-125.201 96.5887ZM-58.0178 74.5326L-59.8228 78.1021L-58.0178 74.5326ZM58.3301 133.368L60.1352 129.798L58.3301 133.368ZM80.3863 200.551L76.8167 198.746L80.3863 200.551ZM69.8033 221.479L67.9983 225.048L64.4287 223.243L66.2338 219.673L69.8033 221.479ZM131.071 252.46L132.876 248.891L131.071 252.46ZM181.864 370.034L180.059 373.603L177.08 372.097L178.029 368.896L181.864 370.034ZM231.907 395.34L233.712 391.77L231.907 395.34ZM253.963 462.523L257.533 464.328L257.533 464.328L253.963 462.523ZM215.92 537.753L212.351 535.948L215.92 537.753ZM148.738 559.809L150.543 556.24L148.738 559.809ZM100.137 535.232L96.567 533.427L98.3721 529.858L101.942 531.663L100.137 535.232ZM57.5127 619.522L61.0823 621.327L57.5127 619.522ZM-76.8528 663.634L-75.0478 660.065L-76.8528 663.634ZM175.183 386.826L178.753 388.631L178.753 388.631L175.183 386.826ZM180.633 373.894L176.848 372.601L178.334 368.249L182.438 370.324L180.633 373.894ZM101.942 531.663L100.137 535.232L96.567 533.427L98.3721 529.858L101.942 531.663ZM150.543 556.24L152.348 552.67L150.543 556.24ZM212.351 535.948L208.781 534.143L212.351 535.948ZM250.394 460.717L253.963 462.523L250.394 460.717ZM230.102 398.909L231.907 395.34L230.102 398.909ZM-101.625 134.79L-99.8199 131.22L-101.625 134.79ZM-134.935 124.702L-135.407 128.674L-141.084 127.999L-138.504 122.897L-134.935 124.702ZM66.2338 219.673L69.8033 221.479L67.9983 225.048L64.4287 223.243L66.2338 219.673ZM76.8167 198.746L73.2471 196.94L76.8167 198.746ZM56.5251 136.937L58.3301 133.368L56.5251 136.937ZM-59.8228 78.1021L-61.6279 81.6717L-59.8228 78.1021ZM-121.631 98.3937L-125.201 96.5887L-121.631 98.3937ZM-350.091 413.403C-374.017 460.717 -355.057 518.468 -307.744 542.394L-311.354 549.533C-362.61 523.614 -383.15 461.05 -357.23 409.793L-350.091 413.403ZM-232.421 180.707L-350.091 413.403L-357.23 409.793L-239.56 177.097L-232.421 180.707ZM-139.508 128.276C-177.068 125.451 -214.372 145.015 -232.421 180.707L-239.56 177.097C-220.001 138.419 -179.58 117.239 -138.907 120.299L-139.508 128.276ZM-121.631 98.3937L-135.638 126.093L-142.777 122.483L-128.77 94.7836L-121.631 98.3937ZM-59.8228 78.1021C-82.4941 66.6376 -110.167 75.7225 -121.631 98.3937L-128.77 94.7836C-115.312 68.1696 -82.8268 57.5047 -56.2127 70.963L-59.8228 78.1021ZM56.5251 136.937L-59.8228 78.1021L-56.2127 70.963L60.1352 129.798L56.5251 136.937ZM76.8167 198.746C88.2812 176.074 79.1963 148.402 56.5251 136.937L60.1352 129.798C86.7492 143.257 97.4141 175.742 83.9558 202.356L76.8167 198.746ZM66.2338 219.673L76.8167 198.746L83.9558 202.356L73.3729 223.284L66.2338 219.673ZM129.266 256.03L67.9983 225.048L71.6084 217.909L132.876 248.891L129.266 256.03ZM178.029 368.896C190.97 325.272 171.311 277.292 129.266 256.03L132.876 248.891C178.433 271.928 199.72 323.907 185.699 371.171L178.029 368.896ZM230.102 398.909L180.059 373.603L183.669 366.464L233.712 391.77L230.102 398.909ZM250.394 460.717C261.858 438.046 252.773 410.374 230.102 398.909L233.712 391.77C260.326 405.228 270.991 437.714 257.533 464.328L250.394 460.717ZM212.351 535.948L250.394 460.717L257.533 464.328L219.49 539.558L212.351 535.948ZM150.543 556.24C173.214 567.704 200.886 558.619 212.351 535.948L219.49 539.558C206.032 566.172 173.547 576.837 146.933 563.379L150.543 556.24ZM101.942 531.663L150.543 556.24L146.933 563.379L98.3315 538.802L101.942 531.663ZM53.9432 617.717L96.567 533.427L103.706 537.037L61.0823 621.327L53.9432 617.717ZM-75.0478 660.065C-27.7339 683.99 30.0173 665.031 53.9432 617.717L61.0823 621.327C35.1626 672.584 -27.4012 693.123 -78.6579 667.204L-75.0478 660.065ZM-307.744 542.394L-75.0478 660.065L-78.6579 667.204L-311.354 549.533L-307.744 542.394ZM171.614 385.021C173.674 380.947 175.415 376.798 176.848 372.601L184.419 375.186C182.866 379.733 180.981 384.225 178.753 388.631L171.614 385.021ZM98.3721 529.858L171.614 385.021L178.753 388.631L105.511 533.468L98.3721 529.858ZM103.747 528.093L152.348 552.67L148.738 559.809L100.137 535.232L103.747 528.093ZM152.348 552.67C173.048 563.138 198.314 554.843 208.781 534.143L215.92 537.753C203.459 562.396 173.38 572.271 148.738 559.809L152.348 552.67ZM208.781 534.143L246.824 458.912L253.963 462.523L215.92 537.753L208.781 534.143ZM246.824 458.912C257.292 438.213 248.997 412.946 228.297 402.479L231.907 395.34C256.55 407.801 266.425 437.88 253.963 462.523L246.824 458.912ZM228.297 402.479L178.828 377.463L182.438 370.324L231.907 395.34L228.297 402.479ZM-103.43 138.36C-113.752 133.14 -124.563 129.963 -135.407 128.674L-134.463 120.73C-122.703 122.128 -110.989 125.572 -99.8199 131.22L-103.43 138.36ZM64.4287 223.243L-103.43 138.36L-99.8199 131.22L68.0389 216.104L64.4287 223.243ZM62.6642 217.868L73.2471 196.94L80.3863 200.551L69.8033 221.479L62.6642 217.868ZM73.2471 196.94C83.7147 176.241 75.4199 150.974 54.72 140.507L58.3301 133.368C82.9728 145.829 92.8476 175.908 80.3863 200.551L73.2471 196.94ZM54.72 140.507L-61.6279 81.6717L-58.0178 74.5326L58.3301 133.368L54.72 140.507ZM-61.6279 81.6717C-82.3277 71.2041 -107.594 79.499 -118.061 100.199L-125.201 96.5887C-112.739 71.946 -82.6604 62.0712 -58.0178 74.5326L-61.6279 81.6717ZM-118.061 100.199L-131.365 126.507L-138.504 122.897L-125.201 96.5887L-118.061 100.199Z" fill="#5864FF" fill-opacity="0.3" mask="url(#path-1-inside-1_37_1308)"/>
<rect x="2.68731" y="-0.882246" width="42.0756" height="42.0756" rx="8" transform="matrix(0.892389 0.451266 0.451266 -0.892389 133.755 243.47)" stroke="#5864FF" stroke-opacity="0.3" stroke-width="4"/>
</g>
</svg>
