<svg width="156" height="374" viewBox="0 0 156 374" fill="none" xmlns="http://www.w3.org/2000/svg">
<g opacity="0.5">
<mask id="path-1-inside-1_37_1330" fill="white">
<path fill-rule="evenodd" clip-rule="evenodd" d="M364.879 144.881C384.406 164.407 384.406 196.065 364.88 215.592L235.355 345.117C218.77 361.702 193.434 364.201 174.212 352.613L162.468 364.357C150.753 376.073 131.758 376.073 120.042 364.357L62.3501 306.666C50.6344 294.95 50.6343 275.955 62.3499 264.239L73.0575 253.532L35.1181 215.593C15.5918 196.067 15.5916 164.408 35.1178 144.882L35.3982 144.602L11.2142 120.418C-0.501562 108.702 -0.501657 89.7072 11.214 77.9914L48.882 40.3232C60.5976 28.6074 79.5926 28.6074 91.3083 40.323L115.492 64.5069L164.643 15.3562C184.169 -4.17012 215.827 -4.17024 235.353 15.3559L364.879 144.881ZM38.2266 141.773L112.664 67.3353L88.4799 43.1515C78.3263 32.9979 61.864 32.998 51.7104 43.1516L14.0425 80.8198C3.88888 90.9735 3.88897 107.436 14.0426 117.589L38.2266 141.773ZM170.805 350.363C168.647 348.808 166.586 347.059 164.644 345.118L75.8859 256.36L65.1784 267.068C55.0248 277.221 55.0249 293.684 65.1785 303.837L122.87 361.529C133.024 371.682 149.486 371.682 159.64 361.529L170.805 350.363Z"/>
</mask>
<path d="M364.88 215.592L367.708 218.42L364.88 215.592ZM364.879 144.881L367.708 142.052L364.879 144.881ZM235.355 345.117L232.526 342.289L235.355 345.117ZM174.212 352.613L171.384 349.785L173.597 347.572L176.277 349.187L174.212 352.613ZM162.468 364.357L165.297 367.185L162.468 364.357ZM120.042 364.357L117.214 367.186L120.042 364.357ZM62.3501 306.666L65.1785 303.837L62.3501 306.666ZM73.0575 253.532L75.8859 250.703L78.7143 253.532L75.8859 256.36L73.0575 253.532ZM35.1181 215.593L37.9465 212.764L35.1181 215.593ZM35.1178 144.882L32.2894 142.054L32.2894 142.054L35.1178 144.882ZM35.3982 144.602L38.2266 141.773L41.0551 144.602L38.2266 147.43L35.3982 144.602ZM11.2142 120.418L8.38579 123.246L11.2142 120.418ZM11.214 77.9914L8.38559 75.163L11.214 77.9914ZM48.882 40.3232L51.7104 43.1516L48.882 40.3232ZM91.3083 40.323L94.1368 37.4946L91.3083 40.323ZM115.492 64.5069L118.321 67.3353L115.492 70.1637L112.664 67.3353L115.492 64.5069ZM164.643 15.3562L167.471 18.1846L164.643 15.3562ZM235.353 15.3559L232.525 18.1843L235.353 15.3559ZM112.664 67.3353L115.492 64.5069L118.321 67.3353L115.492 70.1638L112.664 67.3353ZM38.2266 141.773L41.055 144.602L38.2266 147.43L35.3982 144.602L38.2266 141.773ZM88.4799 43.1515L85.6515 45.9799L88.4799 43.1515ZM51.7104 43.1516L54.5388 45.98L51.7104 43.1516ZM14.0425 80.8198L11.214 77.9914L11.214 77.9914L14.0425 80.8198ZM14.0426 117.589L16.871 114.761L14.0426 117.589ZM164.644 345.118L161.815 347.946L161.815 347.946L164.644 345.118ZM170.805 350.363L173.144 347.119L176.958 349.868L173.633 353.192L170.805 350.363ZM75.8859 256.36L73.0575 253.532L75.8859 250.703L78.7143 253.532L75.8859 256.36ZM65.1785 303.837L68.007 301.009L65.1785 303.837ZM122.87 361.529L120.042 364.357L122.87 361.529ZM159.64 361.529L162.468 364.357L159.64 361.529ZM362.051 212.763C380.015 194.799 380.015 165.673 362.051 147.709L367.708 142.052C388.796 163.141 388.796 197.332 367.708 218.42L362.051 212.763ZM232.526 342.289L362.051 212.763L367.708 218.42L238.183 347.946L232.526 342.289ZM176.277 349.187C193.961 359.848 217.272 357.543 232.526 342.289L238.183 347.946C220.268 365.861 192.906 368.553 172.147 356.039L176.277 349.187ZM159.64 361.529L171.384 349.785L177.041 355.442L165.297 367.185L159.64 361.529ZM122.87 361.529C133.024 371.682 149.486 371.682 159.64 361.529L165.297 367.185C152.019 380.463 130.491 380.463 117.214 367.186L122.87 361.529ZM65.1785 303.837L122.87 361.529L117.214 367.186L59.5217 309.494L65.1785 303.837ZM65.1784 267.068C55.0248 277.221 55.0249 293.684 65.1785 303.837L59.5217 309.494C46.2438 296.216 46.2437 274.689 59.5215 261.411L65.1784 267.068ZM75.8859 256.36L65.1784 267.068L59.5215 261.411L70.229 250.703L75.8859 256.36ZM37.9465 212.764L75.8859 250.703L70.229 256.36L32.2896 218.421L37.9465 212.764ZM37.9462 147.71C19.9822 165.675 19.9823 194.8 37.9465 212.764L32.2896 218.421C11.2013 197.333 11.2011 163.142 32.2894 142.054L37.9462 147.71ZM38.2266 147.43L37.9461 147.711L32.2894 142.054L32.5699 141.773L38.2266 147.43ZM14.0426 117.589L38.2266 141.773L32.5698 147.43L8.38579 123.246L14.0426 117.589ZM14.0425 80.8198C3.88888 90.9735 3.88897 107.436 14.0426 117.589L8.38579 123.246C-4.89209 109.968 -4.89219 88.4408 8.38559 75.163L14.0425 80.8198ZM51.7104 43.1516L14.0425 80.8198L8.38559 75.163L46.0535 37.4948L51.7104 43.1516ZM88.4799 43.1515C78.3263 32.9979 61.864 32.998 51.7104 43.1516L46.0535 37.4948C59.3313 24.2169 80.8589 24.2168 94.1368 37.4946L88.4799 43.1515ZM112.664 67.3353L88.4799 43.1515L94.1368 37.4946L118.321 61.6785L112.664 67.3353ZM167.471 18.1846L118.321 67.3353L112.664 61.6785L161.814 12.5277L167.471 18.1846ZM232.525 18.1843C214.561 0.220287 185.435 0.220397 167.471 18.1846L161.814 12.5277C182.903 -8.56064 217.093 -8.56078 238.182 12.5275L232.525 18.1843ZM362.051 147.709L232.525 18.1843L238.182 12.5275L367.708 142.052L362.051 147.709ZM115.492 70.1638L41.055 144.602L35.3982 138.945L109.835 64.5069L115.492 70.1638ZM109.836 70.1638L85.6515 45.9799L91.3083 40.323L115.492 64.5069L109.836 70.1638ZM85.6515 45.9799C77.06 37.3884 63.1303 37.3885 54.5388 45.98L48.882 40.3232C60.5976 28.6074 79.5926 28.6074 91.3083 40.323L85.6515 45.9799ZM54.5388 45.98L16.8709 83.6482L11.214 77.9914L48.882 40.3232L54.5388 45.98ZM16.8709 83.6482C8.27942 92.2398 8.27947 106.169 16.871 114.761L11.2142 120.418C-0.501532 108.702 -0.501657 89.7072 11.214 77.9914L16.8709 83.6482ZM16.871 114.761L41.055 138.945L35.3982 144.602L11.2142 120.418L16.871 114.761ZM167.472 342.289C169.262 344.079 171.16 345.688 173.144 347.119L168.466 353.608C166.135 351.928 163.909 350.04 161.815 347.946L167.472 342.289ZM78.7143 253.532L167.472 342.289L161.815 347.946L73.0575 259.189L78.7143 253.532ZM78.7143 259.189L68.0068 269.896L62.3499 264.239L73.0575 253.532L78.7143 259.189ZM68.0068 269.896C59.4153 278.488 59.4154 292.417 68.007 301.009L62.3501 306.666C50.6343 294.95 50.6343 275.955 62.3499 264.239L68.0068 269.896ZM68.007 301.009L125.699 358.7L120.042 364.357L62.3501 306.666L68.007 301.009ZM125.699 358.7C134.29 367.292 148.22 367.292 156.811 358.7L162.468 364.357C150.753 376.073 131.758 376.073 120.042 364.357L125.699 358.7ZM156.811 358.7L167.977 347.535L173.633 353.192L162.468 364.357L156.811 358.7Z" fill="#5864FF" fill-opacity="0.3" mask="url(#path-1-inside-1_37_1330)"/>
<rect x="-1.41421" y="4.82798e-06" width="26.3177" height="26.3177" rx="9" transform="matrix(-0.707109 -0.707104 -0.707104 0.707109 38.4696 225.88)" stroke="#5864FF" stroke-opacity="0.3" stroke-width="2"/>
</g>
</svg>
