<svg width="44" height="44" viewBox="0 0 44 44" fill="none" xmlns="http://www.w3.org/2000/svg">
<path fill-rule="evenodd" clip-rule="evenodd" d="M40.4441 19.8553L19.8553 40.444C15.3544 44.9449 8.05687 44.9449 3.55591 40.444C-0.945049 35.943 -0.945049 28.6455 3.55591 24.1446L24.1447 3.55589C28.6456 -0.945063 35.9431 -0.945062 40.4441 3.55589C44.945 8.05684 44.945 15.3543 40.4441 19.8553ZM39.1573 4.84268C35.367 1.05241 29.2217 1.05241 25.4315 4.84268L4.84271 25.4314C1.05243 29.2217 1.05243 35.3669 4.84271 39.1572C8.63299 42.9475 14.7783 42.9475 18.5685 39.1572L39.1573 18.5685C42.9476 14.7782 42.9476 8.63296 39.1573 4.84268Z" fill="#38169C"/>
<path fill-rule="evenodd" clip-rule="evenodd" d="M5.03999 39.3491C8.84331 42.9464 14.8433 42.8824 18.5685 39.1572L39.1573 18.5685C42.9476 14.7783 42.9476 8.63301 39.1573 4.84273C38.2868 3.97226 37.2921 3.3017 36.2303 2.83105C36.2967 2.8939 36.3625 2.95785 36.4276 3.02293C40.2178 6.81321 40.2178 12.9585 36.4276 16.7487L15.8388 37.3374C12.919 40.2572 8.6017 40.9278 5.03999 39.3491Z" fill="#5964FF"/>
<path d="M4.84283 25.4314C1.05255 29.2217 1.05255 35.367 4.84283 39.1572C8.63312 42.9475 14.7784 42.9475 18.5687 39.1572L28.863 28.8629L15.1372 15.1371L4.84283 25.4314Z" fill="#5864FF"/>
<path fill-rule="evenodd" clip-rule="evenodd" d="M18.5686 39.1572C14.8434 42.8824 8.84336 42.9464 5.04004 39.3491C8.60175 40.9278 12.9191 40.2572 15.8389 37.3374L26.5882 26.5881L28.8629 28.8629L18.5686 39.1572Z" fill="#404CE2"/>
<path d="M21.1768 32.756C21.1768 33.5097 20.5657 34.1208 19.8119 34.1208C19.0581 34.1208 18.4471 33.5097 18.4471 32.756C18.4471 32.0022 19.0581 31.3911 19.8119 31.3911C20.5657 31.3911 21.1768 32.0022 21.1768 32.756Z" fill="#141414"/>
<path d="M16.9465 37.3501C16.9465 38.308 16.1699 39.0846 15.212 39.0846C14.254 39.0846 13.4775 38.308 13.4775 37.3501C13.4775 36.3922 14.254 35.6156 15.212 35.6156C16.1699 35.6156 16.9465 36.3922 16.9465 37.3501Z" fill="#141414"/>
<path d="M16.9464 33.065C16.9464 33.6481 16.4737 34.1209 15.8905 34.1209C15.3073 34.1209 14.8346 33.6481 14.8346 33.065C14.8346 32.4818 15.3073 32.009 15.8905 32.009C16.4737 32.009 16.9464 32.4818 16.9464 33.065Z" fill="#141414"/>
<path d="M12.0557 39.0846C12.0557 39.6678 11.583 40.1405 10.9998 40.1405C10.4166 40.1405 9.94388 39.6678 9.94388 39.0846C9.94388 38.5014 10.4166 38.0287 10.9998 38.0287C11.583 38.0287 12.0557 38.5014 12.0557 39.0846Z" fill="#141414"/>
<path d="M12.4538 35.4298C12.4538 36.013 11.981 36.4857 11.3979 36.4857C10.8147 36.4857 10.3419 36.013 10.3419 35.4298C10.3419 34.8467 10.8147 34.3739 11.3979 34.3739C11.981 34.3739 12.4538 34.8467 12.4538 35.4298Z" fill="#141414"/>
<path d="M8.64359 36.9727C8.64359 37.5558 8.17083 38.0286 7.58766 38.0286C7.00449 38.0286 6.53174 37.5558 6.53174 36.9727C6.53174 36.3895 7.00449 35.9167 7.58766 35.9167C8.17083 35.9167 8.64359 36.3895 8.64359 36.9727Z" fill="#141414"/>
<path d="M24.6798 30.3352C24.6798 30.9184 24.2071 31.3911 23.6239 31.3911C23.0407 31.3911 22.568 30.9184 22.568 30.3352C22.568 29.752 23.0407 29.2793 23.6239 29.2793C24.2071 29.2793 24.6798 29.752 24.6798 30.3352Z" fill="#141414"/>
<path fill-rule="evenodd" clip-rule="evenodd" d="M31.507 5.27668C32.2001 6.00448 32.1721 7.15637 31.4443 7.84951L21.8903 16.9485C21.1625 17.6417 20.0106 17.6136 19.3174 16.8858C18.6243 16.158 18.6524 15.0061 19.3802 14.3129L28.9342 5.21393C29.662 4.52079 30.8139 4.54889 31.507 5.27668Z" fill="#5A64FF"/>
<path fill-rule="evenodd" clip-rule="evenodd" d="M31.5 5.26943C32.1972 5.99338 32.1755 7.14541 31.4515 7.84256L28.3806 10.7997C27.6566 11.4969 26.5046 11.4751 25.8074 10.7512C25.1103 10.0272 25.132 8.8752 25.856 8.17806L28.9269 5.22088C29.6509 4.52373 30.8029 4.54547 31.5 5.26943Z" fill="white"/>
</svg>
