<svg width="24" height="23" viewBox="0 0 24 23" fill="none" xmlns="http://www.w3.org/2000/svg">
<path d="M12.0546 22.7361C5.8202 22.7361 0.749023 17.6644 0.749023 11.4305C0.749023 5.19672 5.8202 0.125 12.0546 0.125C18.2889 0.125 23.3601 5.19672 23.3601 11.4305C23.3601 17.6644 18.2889 22.7361 12.0546 22.7361ZM12.0546 1.76562C6.72527 1.76562 2.38965 6.10125 2.38965 11.4305C2.38965 16.7598 6.72527 21.0955 12.0546 21.0955C17.3839 21.0955 21.7195 16.7598 21.7195 11.4305C21.7195 6.10125 17.3839 1.76562 12.0546 1.76562Z" fill="#5864FF"/>
<path d="M22.5399 12.2509H12.0547C11.8371 12.2509 11.6285 12.1644 11.4746 12.0106C11.3208 11.8568 11.2344 11.6481 11.2344 11.4305V0.945313C11.2344 0.727752 11.3208 0.519102 11.4746 0.365264C11.6285 0.211426 11.8371 0.125 12.0547 0.125C12.2722 0.125 12.4809 0.211426 12.6347 0.365264C12.7886 0.519102 12.875 0.727752 12.875 0.945313V10.6102H22.5399C22.7575 10.6102 22.9661 10.6967 23.12 10.8505C23.2738 11.0043 23.3602 11.213 23.3602 11.4305C23.3602 11.6481 23.2738 11.8568 23.12 12.0106C22.9661 12.1644 22.7575 12.2509 22.5399 12.2509Z" fill="#5864FF"/>
<path d="M10.3049 22.5906C10.2587 22.5906 10.2126 22.5867 10.1671 22.5791C10.0608 22.5612 9.95911 22.5225 9.86781 22.4652C9.77651 22.4079 9.69739 22.3332 9.63497 22.2454C9.57255 22.1575 9.52806 22.0582 9.50404 21.9531C9.48001 21.8481 9.47693 21.7393 9.49496 21.6331L11.245 11.2938C11.2751 11.1152 11.3636 10.9516 11.4965 10.8286C11.6294 10.7055 11.7993 10.6299 11.9797 10.6135C12.1601 10.5972 12.3409 10.641 12.4937 10.7381C12.6466 10.8353 12.7631 10.9803 12.8249 11.1506L16.4036 21.0091C16.4779 21.2136 16.4679 21.4392 16.3758 21.6363C16.2837 21.8334 16.117 21.9859 15.9125 22.0602C15.708 22.1344 15.4824 22.1244 15.2853 22.0323C15.0882 21.9402 14.9357 21.7736 14.8614 21.5691L12.3458 14.6325L11.1137 21.9059C11.0816 22.0973 10.9828 22.2711 10.8347 22.3964C10.6866 22.5218 10.4989 22.5906 10.3049 22.5906Z" fill="#5864FF"/>
</svg>
