<svg width="24" height="24" viewBox="0 0 24 24" fill="none" xmlns="http://www.w3.org/2000/svg">
<g clip-path="url(#clip0_232_7473)">
<path d="M21.75 2.25H2.25C1.836 2.25 1.5 2.586 1.5 3C1.5 3.414 1.836 3.75 2.25 3.75H21V15.75H11.25C11.2192 15.75 11.193 15.7635 11.163 15.7673C11.1128 15.7733 11.0655 15.7808 11.0168 15.7965C10.9657 15.813 10.9215 15.8362 10.8765 15.8632C10.8517 15.8775 10.8232 15.882 10.8 15.9L6 19.5V16.5C6 16.0852 5.664 15.75 5.25 15.75H3V6C3 5.586 2.664 5.25 2.25 5.25C1.836 5.25 1.5 5.586 1.5 6V16.5C1.5 16.9148 1.836 17.25 2.25 17.25H4.5V21C4.5 21.2843 4.6605 21.5438 4.91475 21.6712C5.0205 21.7238 5.136 21.75 5.25 21.75C5.409 21.75 5.56725 21.6997 5.7 21.6L11.4998 17.25H21.75C22.1647 17.25 22.5 16.9148 22.5 16.5V3C22.5 2.586 22.1647 2.25 21.75 2.25Z" fill="#511BEB"/>
</g>
<defs>
<clipPath id="clip0_232_7473">
<rect width="24" height="24" fill="white"/>
</clipPath>
</defs>
</svg>
