<svg width="528" height="115" viewBox="0 0 528 115" fill="none" xmlns="http://www.w3.org/2000/svg">
<path fill-rule="evenodd" clip-rule="evenodd" d="M151 -7.62939e-06C151 14.8394 153.923 29.5334 159.602 43.2432C165.28 56.953 173.604 69.41 184.097 79.9031C194.59 90.3961 207.047 98.7196 220.757 104.398C234.467 110.077 249.161 113 264 113C278.839 113 293.533 110.077 307.243 104.398C320.953 98.7196 333.41 90.3961 343.903 79.9031C354.396 69.41 362.72 56.953 368.398 43.2432C374.077 29.5334 377 14.8394 377 0H378H379H528V2H378.983C378.732 16.421 375.77 30.6724 370.246 44.0086C364.467 57.961 355.996 70.6385 345.317 81.3173C334.639 91.996 321.961 100.467 308.009 106.246C294.056 112.025 279.102 115 264 115C248.898 115 233.944 112.025 219.991 106.246C206.039 100.467 193.361 91.996 182.683 81.3173C172.004 70.6385 163.533 57.961 157.754 44.0086C152.23 30.6723 149.268 16.421 149.017 2H0V0L149 -7.62939e-06H151Z" fill="#3C3C3C"/>
</svg>
