<svg width="24" height="24" viewBox="0 0 24 24" fill="none" xmlns="http://www.w3.org/2000/svg">
<path d="M18.4154 12.1384C18.3437 12.0672 18.2587 12.0108 18.1651 11.9725C18.0716 11.9341 17.9715 11.9146 17.8704 11.9149C17.7693 11.9153 17.6693 11.9355 17.5761 11.9745C17.4828 12.0136 17.3982 12.0705 17.327 12.1423C17.2558 12.214 17.1994 12.299 17.161 12.3926C17.1227 12.4861 17.1031 12.5862 17.1035 12.6873C17.1038 12.7884 17.1241 12.8884 17.1631 12.9816C17.2021 13.0749 17.2591 13.1595 17.3308 13.2307C17.9817 13.8747 18.4984 14.6415 18.8509 15.4865C19.2035 16.3316 19.3849 17.2382 19.3847 18.1538C19.3847 19.0923 16.6847 20.4615 12.4616 20.4615C8.23851 20.4615 5.53851 19.0923 5.53851 18.1538C5.53729 17.2442 5.71533 16.3433 6.06246 15.5025C6.40959 14.6617 6.919 13.8976 7.56159 13.2538C7.70486 13.1097 7.78527 12.9147 7.78527 12.7115C7.78527 12.5083 7.70486 12.3133 7.56159 12.1692C7.41746 12.0259 7.2225 11.9455 7.01928 11.9455C6.81606 11.9455 6.6211 12.0259 6.47697 12.1692C5.68859 12.9532 5.06369 13.8859 4.6385 14.9132C4.21331 15.9405 3.9963 17.042 4.00005 18.1538C4.00005 20.6538 8.36159 22 12.4616 22C16.5616 22 20.9231 20.6538 20.9231 18.1538C20.9261 17.0348 20.7058 15.9264 20.2752 14.8935C19.8446 13.8606 19.2124 12.924 18.4154 12.1384Z" fill="#511BEB"/>
<path d="M12.4627 12.7692C13.5277 12.7692 14.5688 12.4534 15.4543 11.8618C16.3398 11.2701 17.0299 10.4291 17.4375 9.44522C17.845 8.46131 17.9517 7.37864 17.7439 6.33413C17.5361 5.28962 17.0233 4.33017 16.2702 3.57712C15.5172 2.82407 14.5577 2.31123 13.5132 2.10347C12.4687 1.8957 11.386 2.00233 10.4021 2.40988C9.41823 2.81743 8.57726 3.50759 7.9856 4.39309C7.39393 5.27858 7.07812 6.31964 7.07812 7.38462C7.07812 8.81271 7.64543 10.1823 8.65524 11.1921C9.66505 12.2019 11.0347 12.7692 12.4627 12.7692ZM12.4627 3.53846C13.2234 3.53846 13.9671 3.76404 14.5995 4.18666C15.232 4.60928 15.725 5.20996 16.0161 5.91276C16.3072 6.61555 16.3834 7.38888 16.235 8.13496C16.0866 8.88104 15.7203 9.56636 15.1824 10.1043C14.6445 10.6422 13.9592 11.0085 13.2131 11.1569C12.467 11.3053 11.6937 11.2291 10.9909 10.938C10.2881 10.6469 9.6874 10.1539 9.26478 9.52142C8.84216 8.88893 8.61659 8.14531 8.61659 7.38462C8.61659 6.36455 9.0218 5.38627 9.7431 4.66498C10.4644 3.94368 11.4427 3.53846 12.4627 3.53846Z" fill="#511BEB"/>
</svg>
